# xmcd
#
# Track frame offsets:
#	150
#	26750
#	43321
#	65193
#	83903
#	98775
#	115096
#	137467
#	154049
#	169509
#	189149
#	213376
#
# Disc length: 3136 seconds
#
# Revision: 1
# Processed by: cddbd v1.5.2PL0 Copyright (c) Steve Scherf et al.
# Submitted via: audiograbber 1.83.01
#
DISCID=9d0c3e0c
DTITLE=Ecuador Andino - The best songs from Ecuador
DYEAR=1900
DGENRE=National Folk
TTITLE0=Para Ti
TTITLE1=Chican
TTITLE2=Arco Iris
TTITLE3=Purimuy
TTITLE4=Rigchary
TTITLE5=Pobre Corazon
TTITLE6=Mamita
TTITLE7=Ponchito Andino
TTITLE8=Taquina
TTITLE9=Tabacundena
TTITLE10=Casorio
TTITLE11=Sanjuan Triste
EXTD=
EXTT0=
EXTT1=
EXTT2=
EXTT3=
EXTT4=
EXTT5=
EXTT6=
EXTT7=
EXTT8=
EXTT9=
EXTT10=
EXTT11=
PLAYORDER=
